<?xml version="1.0" encoding="utf-8"?>
<svg width="181px" height="44px" viewBox="0 0 181 44" version="1.1" xmlns:xlink="http://www.w3.org/1999/xlink" xmlns="http://www.w3.org/2000/svg">
  <defs>
    <path d="M181 0L181 0L181 44L0 44L0 0L181 0Z" id="path_1" />
    <clipPath id="clip_1">
      <use xlink:href="#path_1" />
    </clipPath>
  </defs>
  <g id="Frame" clip-path="url(#clip_1)">
    <path d="M181 0L181 0L181 44L0 44L0 0L181 0Z" id="Frame" fill="none" stroke="none" />
    <path d="M45 22C45 33.0457 36.0457 42 25 42C13.9543 42 5 33.0457 5 22C5 10.9543 13.9543 2 25 2C30.671 2 35.7907 4.3603 39.4304 8.15212C38.071 8.98506 37 9.96454 37 9.96454L37 12.9985C34.2633 9.35603 29.9068 7 25 7C16.7157 7 10 13.7157 10 22C10 30.2843 16.7157 37 25 37C33.2843 37 40 30.2843 40 22C40 20.3772 39.7423 18.8145 39.2655 17.3507L43.1751 13.6418C44.3466 16.1851 45 19.0162 45 22Z" id="Oval-Subtract-Subtract" fill="#000000" fill-rule="evenodd" stroke="none" />
    <path d="M69 22C69 33.0457 60.0457 42 49 42C43.6523 42 38.7948 39.9011 35.2063 36.4823C37.1932 35.7454 39 34.4824 39 34.4824L38.1439 32.3512C40.8757 35.2154 44.7295 37 49 37C57.2843 37 64 30.2843 64 22C64 13.7157 57.2843 7 49 7C40.7157 7 34 13.7157 34 22C34 23.6021 34.2512 25.1455 34.7162 26.593L30.9276 30.5776C29.6916 27.9782 29 25.0698 29 22C29 10.9543 37.9543 2 49 2C60.0457 2 69 10.9543 69 22Z" id="Oval-Subtract-2-Subtract" fill="#000000" fill-rule="evenodd" stroke="none" />
    <g id="SPD" transform="translate(77 -16)">
      <g id="SPD">
        <path d="M16.39 58.135Q12.595 58.135 9.5975 56.7875Q6.6 55.44 4.895 53.0475Q3.19 50.655 3.135 47.52L8.47 47.52Q8.745 50.215 10.6975 52.0575Q12.65 53.9 16.39 53.9Q19.965 53.9 22.0275 52.1125Q24.09 50.325 24.09 47.52Q24.09 45.32 22.88 43.945Q21.67 42.57 19.855 41.855Q18.04 41.14 14.96 40.315Q11.165 39.325 8.8825 38.335Q6.6 37.345 4.9775 35.2275Q3.355 33.11 3.355 29.535Q3.355 26.4 4.95 23.98Q6.545 21.56 9.4325 20.24Q12.32 18.92 16.06 18.92Q21.45 18.92 24.8875 21.615Q28.325 24.31 28.765 28.765L23.265 28.765Q22.99 26.565 20.955 24.8875Q18.92 23.21 15.565 23.21Q12.43 23.21 10.45 24.8325Q8.47 26.455 8.47 29.37Q8.47 31.46 9.6525 32.78Q10.835 34.1 12.5675 34.7875Q14.3 35.475 17.435 36.355Q21.23 37.4 23.54 38.4175Q25.85 39.435 27.5 41.5525Q29.15 43.67 29.15 47.3Q29.15 50.105 27.665 52.58Q26.18 55.055 23.265 56.595Q20.35 58.135 16.39 58.135ZM62.15 30.635Q62.15 35.42 58.8775 38.5825Q55.605 41.745 48.895 41.745L41.525 41.745L41.525 57.75L36.52 57.75L36.52 19.415L48.895 19.415Q55.385 19.415 58.7675 22.55Q62.15 25.685 62.15 30.635ZM48.895 37.62Q53.075 37.62 55.055 35.805Q57.035 33.99 57.035 30.635Q57.035 23.54 48.895 23.54L41.525 23.54L41.525 37.62L48.895 37.62ZM80.3 19.415Q86.57 19.415 91.1625 21.7525Q95.755 24.09 98.2025 28.435Q100.65 32.78 100.65 38.665Q100.65 44.55 98.2025 48.8675Q95.755 53.185 91.1625 55.4675Q86.57 57.75 80.3 57.75L68.365 57.75L68.365 19.415L80.3 19.415ZM80.3 53.625Q87.725 53.625 91.63 49.6925Q95.535 45.76 95.535 38.665Q95.535 31.515 91.6025 27.5Q87.67 23.485 80.3 23.485L73.37 23.485L73.37 53.625L80.3 53.625Z" />
      </g>
    </g>
  </g>
</svg>