<?xml version="1.0" encoding="utf-8"?>
<svg width="418.95px" height="266px" viewBox="0 0 418.95 266" version="1.1" xmlns:xlink="http://www.w3.org/1999/xlink" xmlns="http://www.w3.org/2000/svg">
  <g id="Group" fill-opacity="1">
    <path d="M418.95 0L418.95 0L418.95 266L0 266L0 0L418.95 0Z" id="Group" fill="none" stroke="none" />
    <g id="Group">
      <path d="M0 133C0 59.5461 59.5461 0 133 0C171.263 0 205.752 16.1577 230.016 42.0222C228.581 42.8463 226.427 44.1384 223.22 46.1616C215.653 50.9356 209.622 57.0254 208.576 58.1054C189.295 38.6501 162.555 26.6 133 26.6C74.2369 26.6 26.6 74.2369 26.6 133C26.6 191.763 74.2369 239.4 133 239.4C191.763 239.4 239.4 191.763 239.4 133C239.4 116.024 235.424 99.9758 228.353 85.7369L252.626 74.806C261.193 92.3835 266 112.13 266 133C266 206.454 206.454 266 133 266C59.5461 266 0 206.454 0 133Z" id="Oval-Subtract-Subtract" fill="#000000" fill-rule="evenodd" stroke="none" />
      <path d="M152.95 133C152.95 59.5461 212.496 0 285.95 0C359.404 0 418.95 59.5461 418.95 133C418.95 206.454 359.404 266 285.95 266C247.42 266 212.717 249.616 188.427 223.434C188.553 223.449 188.619 223.455 188.619 223.455C188.619 223.455 189.828 223.105 198.083 217.73C203.29 214.338 207.76 210.352 210.35 207.87C229.632 227.34 256.383 239.4 285.95 239.4C344.713 239.4 392.35 191.763 392.35 133C392.35 74.2369 344.713 26.6 285.95 26.6C227.187 26.6 179.55 74.2369 179.55 133C179.55 150.028 183.55 166.121 190.661 180.392L166.61 191.779C157.864 174.055 152.95 154.101 152.95 133Z" id="Oval-Subtract-2-Subtract" fill="#000000" fill-rule="evenodd" stroke="none" />
    </g>
  </g>
</svg>